Format : MPEG-4
Format profile : Base Media / Version 2
Codec ID : mp42
File size : 416 MiB
Duration : 1h 40mn
Overall bit rate : 578 Kbps
Encoded date : UTC 2010-11-07 11:38:36
Tagged date : UTC 2010-11-07 11:39:05
Writing application : mp4creator 1.6.1d

Video
ID : 1
Format : AVC
Format/Info : Advanced Video Codec
Format profile : Baseline@L1.3
Format settings, CABAC : No
Format settings, ReFrames : 1 frame
Codec ID : avc1
Codec ID/Info : Advanced Video Coding
Duration : 1h 40mn
Bit rate mode : Variable
Bit rate : 513 Kbps
Width : 480 pixels
Height : 272 pixels
Display aspect ratio : 16:9
Original display aspect ratio : 16:9
Frame rate mode : Constant
Frame rate : 24.000 fps
Resolution : 24 bits
Colorimetry : 4:2:0
Scan type : Progressive
Bits/(Pixel*Frame) : 0.164
Stream size : 370 MiB (89%)
Encoded date : UTC 2010-11-07 11:38:36
Tagged date : UTC 2010-11-07 11:39:04

Audio
ID : 2
Format : AAC
Format/Info : Advanced Audio Codec
Format version : Version 4
Format profile : LC
Format settings, SBR : Yes
Format settings, PS : No
Codec ID : 40
Duration : 1h 40mn
Bit rate mode : Variable
Bit rate : 62.7 Kbps
Maximum bit rate : 158 Kbps
Channel(s) : 2 channels
Channel positions : L R
Sampling rate : 48.0 KHz
Resolution : 16 bits
Stream size : 45.2 MiB (11%)
Encoded date : UTC 2010-11-07 11:39:04
Tagged date : UTC 2010-11-07 11:39:05

Starring
Robert De Niro
Edward Norton
Milla Jovovich

Gerald "Stone" Creeson, serving time for Arson, is coming up for a parole hearing. To increase his chances for an early release, he tries to manipulate correctional officer Jack Mabrey by playing psychological games and having his wife Lucetta seduce Mabrey.
 
http://www.imdb.com/title/tt1423995/

screens
 
http://img441.imageshack.us/img441/6792/stoneh264vicemp4snapsho.jpg 
http://img530.imageshack.us/img530/6792/stoneh264vicemp4snapsho.jpg 
http://img233.imageshack.us/img233/6792/stoneh264vicemp4snapsho.jpg 
http://img703.imageshack.us/img703/6792/stoneh264vicemp4snapsho.jpg